<svg width="243" height="160" viewBox="0 0 243 160" fill="none" xmlns="http://www.w3.org/2000/svg">
<path d="M16 160V19H81.4C122.6 19 133.8 44.2 133.8 67.2C133.8 80.2 130.2 93.8 119.6 103.4C130 109.6 133.8 119.4 133.8 128.6C133.8 143.4 123.8 160 91.8 160H16ZM35 97.4H82.8C108.4 97.4 114.8 81.8 114.8 67.2C114.8 52.6 108.4 37 82.8 37H35V97.4ZM35 141H93.4C107.2 141 114.8 137.6 114.8 128.6C114.8 119.6 107.2 115.4 93.4 115.4H35V141Z" fill="white"/>
<path d="M211.4 55V37H166.6C146 37 134.6 47.8 134.6 64.8C134.6 79.6 143.4 87.2 170.2 93.4C191.8 98.4 232.8 97.2 232.8 128.6C232.8 143.4 222.8 160 193 160H115V141H192.4C214.4 141 213.8 131.4 213.8 128.2C213.8 114.8 188.4 115.8 164 110.8C130.4 104 115.6 89.4 115.6 64.8C115.6 36.8 134.8 19 168 19H230.4V55H211.4Z" fill="white"/>
<rect x="92" y="147" width="33" height="13" fill="white"/>
</svg>
